<svg width="800" height="600" xmlns="http://www.w3.org/2000/svg"><rect width="800" height="600" fill="white"/><text x="400" y="30" text-anchor="middle" font-family="Arial, sans-serif" font-size="18" font-weight="bold" fill="#333">Webアプリケーション開発プロジェクト</text><line x1="150" y1="90" x2="760" y2="90" stroke="#333" stroke-width="1"/><line x1="150" y1="85" x2="150" y2="95" stroke="#333" stroke-width="1"/><text x="150" y="80" text-anchor="middle" font-family="Arial, sans-serif" font-size="10" fill="#666">2024/01/15</text><line x1="455" y1="85" x2="455" y2="95" stroke="#333" stroke-width="1"/><text x="455" y="80" text-anchor="middle" font-family="Arial, sans-serif" font-size="10" fill="#666">2024/03/02</text><line x1="760" y1="85" x2="760" y2="95" stroke="#333" stroke-width="1"/><text x="760" y="80" text-anchor="middle" font-family="Arial, sans-serif" font-size="10" fill="#666">2024/04/18</text><text x="140" y="134" text-anchor="end" font-family="Arial, sans-serif" font-size="14" font-weight="bold" fill="#333">企画・設計</text><line x1="150" y1="130" x2="760" y2="130" stroke="#eee" stroke-width="1"/><rect x="150" y="115" width="103.82978723404256" height="30" fill="#3498db" opacity="0.8" rx="3"/><text x="201.91489361702128" y="134" text-anchor="middle" font-family="Arial, sans-serif" font-size="12" fill="white" font-weight="bold">要件定義</text><rect x="260.3191489361702" y="115" width="84.36170212765958" height="30" fill="#e74c3c" opacity="0.8" rx="3"/><text x="302.5" y="134" text-anchor="middle" font-family="Arial, sans-serif" font-size="12" fill="white" font-weight="bold">UI/UX設計</text><text x="140" y="184" text-anchor="end" font-family="Arial, sans-serif" font-size="14" font-weight="bold" fill="#333">開発</text><line x1="150" y1="180" x2="760" y2="180" stroke="#eee" stroke-width="1"/><rect x="351.17021276595744" y="165" width="292.02127659574467" height="30" fill="#3498db" opacity="0.8" rx="3"/><text x="497.1808510638298" y="184" text-anchor="middle" font-family="Arial, sans-serif" font-size="12" fill="white" font-weight="bold">フロントエンド開発</text><rect x="383.6170212765958" y="165" width="292.02127659574467" height="30" fill="#e74c3c" opacity="0.8" rx="3"/><text x="529.6276595744681" y="184" text-anchor="middle" font-family="Arial, sans-serif" font-size="12" fill="white" font-weight="bold">バックエンド開発</text><text x="140" y="234" text-anchor="end" font-family="Arial, sans-serif" font-size="14" font-weight="bold" fill="#333">テスト・デプロイ</text><line x1="150" y1="230" x2="760" y2="230" stroke="#eee" stroke-width="1"/><rect x="649.6808510638298" y="215" width="90.85106382978722" height="30" fill="#3498db" opacity="0.8" rx="3"/><text x="695.1063829787233" y="234" text-anchor="middle" font-family="Arial, sans-serif" font-size="12" fill="white" font-weight="bold">統合テスト</text><rect x="747.0212765957447" y="215" width="12.978723404255334" height="30" fill="#e74c3c" opacity="0.8" rx="3"/></svg>